<?xml version="1.0" encoding="iso-8859-1"?>
<!-- Uploaded to: SVG Repo, www.svgrepo.com, Generator: SVG Repo Mixer Tools -->
<svg height="800px" width="800px" version="1.1" id="Layer_1" xmlns="http://www.w3.org/2000/svg" xmlns:xlink="http://www.w3.org/1999/xlink" 
	 viewBox="0 0 495 495" xml:space="preserve">
<g id="XMLID_2_">
	<path style="fill:#FFFFFF;" d="M135.96,246.03v99.89H58.27v25.33c0,68.24,55.51,123.75,123.75,123.75h130.96
		c68.24,0,123.75-55.51,123.75-123.75V246.03H135.96z"/>
	<path style="fill:#FFFFFF;" d="M436.73,110.9v135.13h-67.69V110.9c0-18.66,15.18-33.84,33.84-33.84
		C421.55,77.06,436.73,92.24,436.73,110.9z"/>
	<path style="fill:#FFFFFF;" d="M359.04,70.63v175.4h-67.69V70.63c0-18.66,15.18-33.84,33.84-33.84
		C343.86,36.79,359.04,51.97,359.04,70.63z"/>
	<path style="fill:#FFFFFF;" d="M281.35,33.85v212.18h-67.7V33.85C213.65,15.18,228.84,0,247.5,0S281.35,15.18,281.35,33.85z"/>
	<path style="fill:#FFFFFF;" d="M203.65,70.63v175.4h-67.69V70.63c0-18.66,15.18-33.84,33.85-33.84
		C188.47,36.79,203.65,51.97,203.65,70.63z"/>
	<path style="fill:#FFFFFF;" d="M125.96,257.13v88.79H58.27v-88.79c0-18.66,15.18-33.84,33.85-33.84
		C110.78,223.29,125.96,238.47,125.96,257.13z"/>
</g>
</svg>